<svg width="16" height="20" viewBox="0 0 16 20" fill="none" xmlns="http://www.w3.org/2000/svg">
<path d="M14.9892 4.9964H11.9914V3.99712C11.9914 2.93702 11.5702 1.92034 10.8206 1.17073C10.071 0.421124 9.05435 0 7.99425 0C6.93414 0 5.91746 0.421124 5.16785 1.17073C4.41825 1.92034 3.99712 2.93702 3.99712 3.99712V4.9964H0.999281C0.734255 4.9964 0.480084 5.10169 0.292683 5.28909C0.105281 5.47649 0 5.73066 0 5.99568V16.9878C0 17.7828 0.315843 18.5454 0.878048 19.1076C1.44025 19.6698 2.20277 19.9856 2.99784 19.9856H12.9907C13.7857 19.9856 14.5482 19.6698 15.1104 19.1076C15.6727 18.5454 15.9885 17.7828 15.9885 16.9878V5.99568C15.9885 5.73066 15.8832 5.47649 15.6958 5.28909C15.5084 5.10169 15.2542 4.9964 14.9892 4.9964ZM5.99568 3.99712C5.99568 3.46707 6.20625 2.95873 6.58105 2.58393C6.95585 2.20912 7.46419 1.99856 7.99425 1.99856C8.5243 1.99856 9.03264 2.20912 9.40744 2.58393C9.78225 2.95873 9.99281 3.46707 9.99281 3.99712V4.9964H5.99568V3.99712ZM13.9899 16.9878C13.9899 17.2528 13.8847 17.507 13.6972 17.6944C13.5098 17.8818 13.2557 17.9871 12.9907 17.9871H2.99784C2.73282 17.9871 2.47865 17.8818 2.29124 17.6944C2.10384 17.507 1.99856 17.2528 1.99856 16.9878V6.99497H3.99712V7.99425C3.99712 8.25927 4.1024 8.51344 4.28981 8.70084C4.47721 8.88825 4.73138 8.99353 4.9964 8.99353C5.26143 8.99353 5.5156 8.88825 5.703 8.70084C5.8904 8.51344 5.99568 8.25927 5.99568 7.99425V6.99497H9.99281V7.99425C9.99281 8.25927 10.0981 8.51344 10.2855 8.70084C10.4729 8.88825 10.7271 8.99353 10.9921 8.99353C11.2571 8.99353 11.5113 8.88825 11.6987 8.70084C11.8861 8.51344 11.9914 8.25927 11.9914 7.99425V6.99497H13.9899V16.9878Z" fill="white"/>
</svg>
